<svg width="40" height="40" viewBox="0 0 40 40" fill="none" xmlns="http://www.w3.org/2000/svg">
<path d="M29.3273 15.3859C29.2801 15.2717 29.2 15.1741 29.0972 15.1054C28.9944 15.0367 28.8736 15 28.75 15H26.3727C26.0403 14.4345 25.5672 13.9646 24.9995 13.6361C24.4318 13.3075 23.7887 13.1315 23.1328 13.125C22.6442 13.1186 22.1591 13.21 21.7063 13.3938C21.2535 13.5776 20.842 13.8501 20.4961 14.1953C20.1401 14.5447 19.8575 14.9618 19.6649 15.4219C19.4724 15.8821 19.3738 16.3762 19.375 16.875V17.3508C16.2297 16.5211 13.657 13.9625 13.6297 13.9352C13.5458 13.8506 13.4396 13.7917 13.3234 13.7655C13.2072 13.7393 13.0859 13.7468 12.9739 13.7872C12.8618 13.8276 12.7636 13.8991 12.6909 13.9934C12.6182 14.0878 12.5739 14.2009 12.5633 14.3195C12.2266 18.0531 13.3109 20.5516 14.282 21.9898C14.7555 22.7008 15.3315 23.3379 15.9914 23.8805C14.8016 25.25 12.9281 25.9695 12.9078 25.9773C12.8196 26.0104 12.74 26.0629 12.675 26.131C12.61 26.1991 12.5612 26.2811 12.5322 26.3707C12.5033 26.4603 12.495 26.5553 12.508 26.6486C12.5209 26.7419 12.5548 26.831 12.607 26.9094C12.6656 26.9969 12.9 27.3039 13.4727 27.5906C14.1805 27.9453 15.1156 28.125 16.25 28.125C21.7711 28.125 26.3844 23.8734 26.8555 18.4031L29.1922 16.0672C29.2796 15.9797 29.339 15.8683 29.3631 15.7471C29.3872 15.6258 29.3747 15.5001 29.3273 15.3859ZM25.8117 17.6836C25.7046 17.791 25.6401 17.9337 25.6305 18.0852C25.3125 23.0141 21.1937 26.875 16.25 26.875C15.425 26.875 14.8437 26.7656 14.4359 26.6344C15.3352 26.1461 16.5891 25.3062 17.3953 24.0969C17.4426 24.0258 17.4749 23.9457 17.49 23.8616C17.5052 23.7776 17.503 23.6913 17.4835 23.6081C17.464 23.525 17.4277 23.4467 17.3768 23.3781C17.3259 23.3095 17.2615 23.2521 17.1875 23.2094C17.1508 23.1883 13.757 21.1516 13.75 15.7094C15 16.725 17.2852 18.3008 19.8961 18.7398C19.9856 18.7549 20.0773 18.7503 20.1648 18.7264C20.2523 18.7025 20.3336 18.6598 20.403 18.6013C20.4723 18.5428 20.5281 18.4699 20.5665 18.3876C20.6048 18.3054 20.6248 18.2157 20.625 18.125V16.875C20.6243 16.5416 20.6903 16.2114 20.8191 15.9039C20.9479 15.5964 21.1369 15.3177 21.375 15.0844C21.6032 14.8557 21.875 14.6751 22.1743 14.5533C22.4735 14.4314 22.7941 14.3708 23.1172 14.375C24.1062 14.3875 25.0305 14.9906 25.4172 15.8758C25.4659 15.9871 25.5461 16.0817 25.6478 16.1482C25.7495 16.2147 25.8683 16.25 25.9898 16.25H27.2398L25.8117 17.6836Z" fill="white"/>
<circle cx="20" cy="20" r="19.5" stroke="white"/>
<circle cx="20" cy="20" r="19.5" stroke="white"/>
<circle cx="20" cy="20" r="19.5" stroke="white"/>
</svg>
